<svg width="89" height="79" viewBox="0 0 89 79" fill="none" xmlns="http://www.w3.org/2000/svg">
<path d="M71.6756 64.8817H52.997C48.4311 64.8817 44.3118 67.003 41.4062 70.3987H41.4044C39.5773 72.5363 38.2283 75.1772 37.55 78.1126H42.7904C44.3562 73.6552 48.2476 70.4825 52.8191 70.4028C52.8784 70.4007 52.9377 70.4007 52.997 70.4007H81.8506V64.8817H71.6756ZM43.9041 68.1035C44.1209 67.9337 44.3414 67.7701 44.5656 67.6146C44.3414 67.7721 44.1209 67.9358 43.9041 68.1035Z" fill="#34C6F2"/>
<path d="M71.2031 27.8155C76.677 21.7728 83.1237 14.6562 88.605 8.60535H69.2296C53.5956 25.864 33.9089 47.5963 18.2508 64.8815H13.0141C28.6797 47.5881 48.3515 25.8721 63.993 8.60535H52.8729C51.5684 10.7491 49.9266 12.6208 48.0328 14.1243H51.926L48.2236 18.2114H7.70144V23.7284H43.226C30.9255 37.307 13.129 56.9528 0.948975 70.3984H20.3225C35.9547 53.1419 55.6413 31.4095 71.2995 14.1243H76.5362C60.8632 31.4259 41.2099 53.1255 25.5591 70.4005H36.6792C36.6792 70.4005 36.6792 70.3984 36.6811 70.3984C37.0072 69.8625 37.3537 69.3429 37.7206 68.8438C37.3537 69.345 37.0072 69.8625 36.6811 70.3984H36.783C38.0857 68.2587 39.7256 66.3891 41.6194 64.8815H41.5193C41.045 65.2579 40.5891 65.6568 40.1481 66.0761C40.5891 65.6568 41.0468 65.2579 41.5193 64.8815H37.628L41.3303 60.7944H81.8507V55.2775H46.328C48.2347 53.1725 68.7089 30.5688 71.2031 27.8155Z" fill="#34C6F2"/>
<path d="M36.5553 14.1245C41.123 14.1245 45.2423 12.0032 48.1479 8.60548C49.975 6.46989 51.324 3.82903 52.0022 0.893616H46.7618C45.1756 5.40823 41.2027 8.60548 36.5553 8.60548H7.70166V14.1245H36.5553Z" fill="#34C6F2"/>
</svg>
